<?xml version="1.0" encoding="UTF-8" standalone="no"?>
<!-- Created with Inkscape (http://www.inkscape.org/) -->

<svg
   width="210mm"
   height="297mm"
   viewBox="0 0 210 297"
   version="1.1"
   id="svg5"
   inkscape:export-filename="bitmap.png"
   inkscape:export-xdpi="96"
   inkscape:export-ydpi="96"
   inkscape:version="1.2.2 (732a01da63, 2022-12-09)"
   sodipodi:docname="drawing.svg"
   xmlns:inkscape="http://www.inkscape.org/namespaces/inkscape"
   xmlns:sodipodi="http://sodipodi.sourceforge.net/DTD/sodipodi-0.dtd"
   xmlns="http://www.w3.org/2000/svg"
   xmlns:svg="http://www.w3.org/2000/svg">
  <sodipodi:namedview
     id="namedview7"
     pagecolor="#ffffff"
     bordercolor="#000000"
     borderopacity="0.25"
     inkscape:showpageshadow="2"
     inkscape:pageopacity="0.0"
     inkscape:pagecheckerboard="0"
     inkscape:deskcolor="#d1d1d1"
     inkscape:document-units="mm"
     showgrid="false"
     inkscape:zoom="1.0330822"
     inkscape:cx="211.01902"
     inkscape:cy="269.58164"
     inkscape:window-width="1920"
     inkscape:window-height="1009"
     inkscape:window-x="-8"
     inkscape:window-y="-8"
     inkscape:window-maximized="1"
     inkscape:current-layer="layer1" />
  <defs
     id="defs2" />
  <g
     inkscape:label="Layer 1"
     inkscape:groupmode="layer"
     id="layer1">
    <path
       id="rect788"
       style="fill:#c3905b;fill-opacity:1;stroke-width:0.4;stroke-linecap:round;stroke-dasharray:1.6, 1.6;paint-order:fill markers stroke"
       d="m 23.550453,19.764821 c 3.850276,-6.585923 17.235673,-6.235075 22.652063,-0.862764 5.416638,5.372557 1.063948,97.000373 1.063948,97.000373 H 22.275002 c 0,0 -4.576323,-86.128111 1.275451,-96.137609 z"
       sodipodi:nodetypes="ssccs"
       inkscape:transform-center-x="0.15846036"
       inkscape:transform-center-y="50.503583" />
    <rect
       style="fill:#98aeed;fill-opacity:1;stroke:none;stroke-width:0.4;stroke-linecap:round;stroke-dasharray:1.6, 1.6;paint-order:fill markers stroke"
       id="rect3227"
       width="91.997559"
       height="168.05853"
       x="81.856094"
       y="29.337805" />
    <ellipse
       style="fill:#da5555;fill-opacity:1;stroke:none;stroke-width:0.4;stroke-linecap:round;stroke-dasharray:1.6, 1.6;paint-order:fill markers stroke"
       id="path5155"
       cx="41.290245"
       cy="176.20793"
       rx="15.936585"
       ry="15.031097" />
    <ellipse
       style="fill:#2b0000;fill-opacity:1;stroke:none;stroke-width:0.536009;stroke-linecap:round;stroke-dasharray:2.14404, 2.14404;paint-order:fill markers stroke"
       id="path5209"
       cx="111.7786"
       cy="136.47633"
       rx="7.7257628"
       ry="5.3425589"
       transform="matrix(0.91693923,0.39902688,-0.41263051,0.91089849,0,0)" />
    <ellipse
       style="fill:#ffffff;fill-opacity:1;stroke:none;stroke-width:0.4;stroke-linecap:round;stroke-dasharray:1.6, 1.6;paint-order:fill markers stroke"
       id="path6166"
       cx="113.42012"
       cy="134.25888"
       rx="2.0373476"
       ry="1.5846037"
       transform="rotate(24.482486)" />
    <path
       style="fill:#ffffff;fill-opacity:1;stroke:none;stroke-width:0.4;stroke-linecap:round;stroke-dasharray:1.6, 1.6;paint-order:fill markers stroke"
       d="m 62.750305,177.6567 c 1.358231,1.50915 2.716464,3.0183 4.074694,4.52744"
       id="path6545" />
    <path
       style="fill:#ffffff;fill-opacity:1;stroke:none;stroke-width:0.4;stroke-linecap:round;stroke-dasharray:1.6, 1.6;paint-order:fill markers stroke"
       d="m 65.104573,174.84969 c 1.478962,2.8372 2.957925,5.67439 4.43689,8.51159"
       id="path6547" />
    <path
       style="fill:#ffffff;fill-opacity:1;stroke:none;stroke-width:0.4;stroke-linecap:round;stroke-dasharray:1.6, 1.6;paint-order:fill markers stroke"
       d="m 54.23872,180.82591 c 0,0 -3.712501,0.27165 -6.881709,-0.18109 -3.169206,-0.45275 -4.889632,-0.81494 -6.70061,-2.89757 -1.810975,-2.08262 -4.889632,-1.53932 -2.444816,1.08659 2.444816,2.62591 7.515548,3.5314 7.515548,3.5314 0,0 4.255793,0.63384 6.700609,0.0906 2.444819,-0.54329 1.810978,-1.62988 1.810978,-1.62988 z"
       id="path9475" />
    <ellipse
       style="fill:#da5555;fill-opacity:1;stroke:none;stroke-width:0.4;stroke-linecap:round;stroke-dasharray:1.6, 1.6;paint-order:fill markers stroke"
       id="ellipse295"
       cx="40.565853"
       cy="224.37988"
       rx="15.936585"
       ry="15.031097" />
    <ellipse
       style="fill:#2b0000;fill-opacity:1;stroke:none;stroke-width:0.536009;stroke-linecap:round;stroke-dasharray:2.14404, 2.14404;paint-order:fill markers stroke"
       id="ellipse297"
       cx="130.99811"
       cy="180.94106"
       rx="7.7257628"
       ry="5.3425589"
       transform="matrix(0.91693923,0.39902688,-0.41263051,0.91089849,0,0)" />
    <ellipse
       style="fill:#ffffff;fill-opacity:1;stroke:none;stroke-width:0.4;stroke-linecap:round;stroke-dasharray:1.6, 1.6;paint-order:fill markers stroke"
       id="ellipse299"
       cx="132.72404"
       cy="178.3998"
       rx="2.0373476"
       ry="1.5846037"
       transform="rotate(24.482486)" />
    <path
       style="fill:#ffffff;fill-opacity:1;stroke:none;stroke-width:0.4;stroke-linecap:round;stroke-dasharray:1.6, 1.6;paint-order:fill markers stroke"
       d="m 35.376293,233.45333 c 0,0 3.244537,-1.82467 6.305419,-2.76268 3.060883,-0.93799 4.772013,-1.34184 7.296747,-0.22707 2.524728,1.11477 5.08007,-0.68622 1.750629,-2.02314 -3.329441,-1.33691 -8.30387,-2e-5 -8.30387,-2e-5 0,0 -4.121329,1.23619 -6.103028,2.76756 -1.98168,1.53142 -0.945919,2.24531 -0.945919,2.24531 z"
       id="path301" />
  </g>
</svg>
